<svg width="86" height="22" viewBox="0 0 86 22" fill="none" xmlns="http://www.w3.org/2000/svg">
<path d="M0.769886 21V0.636363H14.4915V4.18608H5.07528V9.03835H13.7855V12.5881H5.07528V17.4503H14.5312V21H0.769886ZM27.6305 9.13778V12.4986H18.3436V9.13778H27.6305ZM31.5994 21V0.636363H35.9048V9.03835H44.6449V0.636363H48.9403V21H44.6449V12.5881H35.9048V21H31.5994ZM62.4845 14.4972V5.72727H66.7203V21H62.6536V18.2259H62.4945C62.1498 19.1207 61.5764 19.84 60.7743 20.3835C59.9788 20.9271 59.0077 21.1989 57.861 21.1989C56.8401 21.1989 55.9419 20.9669 55.1663 20.5028C54.3908 20.0388 53.7842 19.3793 53.3467 18.5241C52.9159 17.669 52.6971 16.6449 52.6905 15.4517V5.72727H56.9263V14.696C56.9329 15.5975 57.1749 16.3101 57.6521 16.8338C58.1294 17.3575 58.7691 17.6193 59.5712 17.6193C60.0816 17.6193 60.5589 17.5033 61.003 17.2713C61.4471 17.0327 61.8051 16.6813 62.0769 16.2173C62.3553 15.7533 62.4912 15.1799 62.4845 14.4972ZM70.468 21V0.636363H74.7038V8.29261H74.8331C75.0187 7.88163 75.2871 7.46401 75.6385 7.03977C75.9964 6.6089 76.4604 6.25095 77.0305 5.96591C77.6072 5.67424 78.3231 5.52841 79.1782 5.52841C80.2919 5.52841 81.3193 5.82008 82.2606 6.40341C83.2019 6.98011 83.9543 7.8518 84.5177 9.01847C85.0812 10.1785 85.3629 11.6335 85.3629 13.3835C85.3629 15.0871 85.0878 16.5256 84.5376 17.6989C83.9941 18.8655 83.2516 19.7505 82.3103 20.3537C81.3757 20.9503 80.3283 21.2486 79.1683 21.2486C78.3463 21.2486 77.647 21.1127 77.0703 20.8409C76.5002 20.5691 76.0329 20.2277 75.6683 19.8168C75.3037 19.3991 75.0253 18.9782 74.8331 18.554H74.6442V21H70.468ZM74.6143 13.3636C74.6143 14.2718 74.7403 15.0639 74.9922 15.7401C75.2441 16.4162 75.6086 16.9432 76.0859 17.321C76.5632 17.6922 77.1432 17.8778 77.826 17.8778C78.5154 17.8778 79.0987 17.6889 79.576 17.3111C80.0532 16.9266 80.4145 16.3963 80.6598 15.7202C80.9117 15.0374 81.0376 14.2519 81.0376 13.3636C81.0376 12.482 80.915 11.7064 80.6697 11.0369C80.4245 10.3674 80.0632 9.84375 79.5859 9.46591C79.1086 9.08807 78.522 8.89915 77.826 8.89915C77.1366 8.89915 76.5532 9.08144 76.076 9.44602C75.6053 9.81061 75.2441 10.3277 74.9922 10.9972C74.7403 11.6667 74.6143 12.4555 74.6143 13.3636Z" fill="#1B1B1D"/>
</svg>
