<svg width="36" height="23" viewBox="0 0 36 23" fill="none" xmlns="http://www.w3.org/2000/svg">
<path d="M35.9999 7.67749H0V15.322H35.9999V7.67749Z" fill="#F5F5F5"/>
<path d="M35.9999 6.99854H0V7.95176H35.9999V6.99854Z" fill="#FF4B55"/>
<path d="M35.9999 15.0479H0V16.0011H35.9999V15.0479Z" fill="#FF4B55"/>
<rect width="36" height="7.01466" fill="#429FF4"/>
<rect y="15.9854" width="36" height="7.01466" fill="#34A853"/>
<path d="M7.98002 5.72505C6.70933 5.72505 5.67933 4.72588 5.67933 3.49473C5.67933 2.25906 6.70926 1.25538 7.98002 1.25538C7.98494 1.25538 7.98972 1.25538 7.9945 1.25545C8.06931 1.2564 8.09554 1.1598 8.02959 1.12541C7.6383 0.921456 7.19175 0.806047 6.717 0.809397C5.19656 0.819926 3.96152 2.04506 3.9777 3.52351C3.99359 4.98671 5.22377 6.1711 6.73689 6.1711C7.2051 6.1711 7.6454 6.05589 8.03184 5.85475C8.09758 5.82049 8.071 5.72389 7.99647 5.72491C7.99085 5.72505 7.98543 5.72505 7.98002 5.72505Z" fill="#F5F5F5"/>
<path d="M9.78155 5.1083L9.67883 5.4079L9.35405 5.41029C9.31201 5.41057 9.29457 5.4628 9.32839 5.48707L9.58967 5.67468L9.49166 5.97579C9.479 6.01476 9.52463 6.04703 9.55887 6.02324L9.82311 5.83959L10.0873 6.02324C10.1216 6.04703 10.1671 6.01476 10.1546 5.97579L10.0565 5.67468L10.3178 5.48707C10.3516 5.4628 10.3341 5.41057 10.2921 5.41029L9.96732 5.4079L9.86459 5.1083C9.8513 5.06953 9.79491 5.06953 9.78155 5.1083Z" fill="#F5F5F5"/>
<path d="M12.0696 5.1083L11.9669 5.4079L11.6421 5.41029C11.6001 5.41057 11.5827 5.4628 11.6165 5.48707L11.8777 5.67468L11.7797 5.97579C11.767 6.01476 11.8126 6.04703 11.8469 6.02324L12.1111 5.83959L12.3754 6.02324C12.4096 6.04703 12.4552 6.01476 12.4426 5.97579L12.3446 5.67468L12.6058 5.48707C12.6396 5.4628 12.6222 5.41057 12.5801 5.41029L12.2553 5.4079L12.1526 5.1083C12.1393 5.06953 12.0829 5.06953 12.0696 5.1083Z" fill="#F5F5F5"/>
<path d="M14.3577 5.1083L14.255 5.4079L13.9302 5.41029C13.8882 5.41057 13.8707 5.4628 13.9046 5.48707L14.1658 5.67468L14.0678 5.97579C14.0552 6.01476 14.1008 6.04703 14.135 6.02324L14.3993 5.83959L14.6635 6.02324C14.6978 6.04703 14.7433 6.01476 14.7307 5.97579L14.6327 5.67468L14.8939 5.48707C14.9277 5.4628 14.9103 5.41057 14.8683 5.41029L14.5435 5.4079L14.4408 5.1083C14.4275 5.06953 14.371 5.06953 14.3577 5.1083Z" fill="#F5F5F5"/>
<path d="M16.6458 5.1083L16.5431 5.4079L16.2183 5.41029C16.1763 5.41057 16.1588 5.4628 16.1926 5.48707L16.4539 5.67468L16.3558 5.97579C16.3432 6.01476 16.3888 6.04703 16.4231 6.02324L16.6873 5.83959L16.9515 6.02324C16.9858 6.04703 17.0313 6.01476 17.0187 5.97579L16.9207 5.67468L17.1819 5.48707C17.2158 5.4628 17.1983 5.41057 17.1563 5.41029L16.8315 5.4079L16.7288 5.1083C16.7156 5.06953 16.6591 5.06953 16.6458 5.1083Z" fill="#F5F5F5"/>
<path d="M18.9338 5.1083L18.831 5.4079L18.5063 5.41029C18.4642 5.41057 18.4468 5.4628 18.4806 5.48707L18.7419 5.67468L18.6439 5.97579C18.6312 6.01476 18.6769 6.04703 18.7111 6.02324L18.9753 5.83959L19.2396 6.02324C19.2738 6.04703 19.3194 6.01476 19.3068 5.97579L19.2088 5.67468L19.47 5.48707C19.5039 5.4628 19.4864 5.41057 19.4444 5.41029L19.1196 5.4079L19.0169 5.1083C19.0035 5.06953 18.9471 5.06953 18.9338 5.1083Z" fill="#F5F5F5"/>
<path d="M12.0696 3.03174L11.9669 3.33134L11.6421 3.33373C11.6001 3.33401 11.5827 3.38624 11.6165 3.41051L11.8777 3.59812L11.7797 3.89923C11.767 3.9382 11.8126 3.97047 11.8469 3.94668L12.1111 3.76303L12.3754 3.94668C12.4096 3.97047 12.4552 3.9382 12.4426 3.89923L12.3446 3.59812L12.6058 3.41051C12.6396 3.38624 12.6222 3.33401 12.5801 3.33373L12.2553 3.33134L12.1526 3.03174C12.1393 2.99284 12.0829 2.99284 12.0696 3.03174Z" fill="#F5F5F5"/>
<path d="M14.3577 3.03174L14.255 3.33134L13.9302 3.33373C13.8882 3.33401 13.8707 3.38624 13.9046 3.41051L14.1658 3.59812L14.0678 3.89923C14.0552 3.9382 14.1008 3.97047 14.135 3.94668L14.3993 3.76303L14.6635 3.94668C14.6978 3.97047 14.7433 3.9382 14.7307 3.89923L14.6327 3.59812L14.8939 3.41051C14.9277 3.38624 14.9103 3.33401 14.8683 3.33373L14.5435 3.33134L14.4408 3.03174C14.4275 2.99284 14.371 2.99284 14.3577 3.03174Z" fill="#F5F5F5"/>
<path d="M16.6458 3.03174L16.5431 3.33134L16.2183 3.33373C16.1763 3.33401 16.1588 3.38624 16.1926 3.41051L16.4539 3.59812L16.3558 3.89923C16.3432 3.9382 16.3888 3.97047 16.4231 3.94668L16.6873 3.76303L16.9515 3.94668C16.9858 3.97047 17.0313 3.9382 17.0187 3.89923L16.9207 3.59812L17.1819 3.41051C17.2158 3.38624 17.1983 3.33401 17.1563 3.33373L16.8315 3.33134L16.7288 3.03174C16.7156 2.99284 16.6591 2.99284 16.6458 3.03174Z" fill="#F5F5F5"/>
<path d="M18.9338 3.03174L18.831 3.33134L18.5063 3.33373C18.4642 3.33401 18.4468 3.38624 18.4806 3.41051L18.7419 3.59812L18.6439 3.89923C18.6312 3.9382 18.6769 3.97047 18.7111 3.94668L18.9753 3.76303L19.2396 3.94668C19.2738 3.97047 19.3194 3.9382 19.3068 3.89923L19.2088 3.59812L19.47 3.41051C19.5039 3.38624 19.4864 3.33401 19.4444 3.33373L19.1196 3.33134L19.0169 3.03174C19.0035 2.99284 18.9471 2.99284 18.9338 3.03174Z" fill="#F5F5F5"/>
<path d="M14.3577 5.1083L14.255 5.4079L13.9302 5.41029C13.8882 5.41057 13.8707 5.4628 13.9046 5.48707L14.1658 5.67468L14.0678 5.97579C14.0552 6.01476 14.1008 6.04703 14.135 6.02324L14.3993 5.83959L14.6635 6.02324C14.6978 6.04703 14.7433 6.01476 14.7307 5.97579L14.6327 5.67468L14.8939 5.48707C14.9277 5.4628 14.9103 5.41057 14.8683 5.41029L14.5435 5.4079L14.4408 5.1083C14.4275 5.06953 14.371 5.06953 14.3577 5.1083Z" fill="#F5F5F5"/>
<path d="M14.3577 0.9551L14.255 1.2547L13.9302 1.25709C13.8882 1.25737 13.8707 1.3096 13.9046 1.33387L14.1658 1.52148L14.0678 1.82259C14.0552 1.86156 14.1008 1.89383 14.135 1.87004L14.3993 1.68639L14.6635 1.87004C14.6978 1.89383 14.7433 1.86156 14.7307 1.82259L14.6327 1.52148L14.8939 1.33387C14.9277 1.3096 14.9103 1.25737 14.8683 1.25709L14.5435 1.2547L14.4408 0.9551C14.4275 0.916334 14.371 0.916334 14.3577 0.9551Z" fill="#F5F5F5"/>
<path d="M16.6458 5.1083L16.5431 5.4079L16.2183 5.41029C16.1763 5.41057 16.1588 5.4628 16.1926 5.48707L16.4539 5.67468L16.3558 5.97579C16.3432 6.01476 16.3888 6.04703 16.4231 6.02324L16.6873 5.83959L16.9515 6.02324C16.9858 6.04703 17.0313 6.01476 17.0187 5.97579L16.9207 5.67468L17.1819 5.48707C17.2158 5.4628 17.1983 5.41057 17.1563 5.41029L16.8315 5.4079L16.7288 5.1083C16.7156 5.06953 16.6591 5.06953 16.6458 5.1083Z" fill="#F5F5F5"/>
<path d="M18.9338 5.1083L18.831 5.4079L18.5063 5.41029C18.4642 5.41057 18.4468 5.4628 18.4806 5.48707L18.7419 5.67468L18.6439 5.97579C18.6312 6.01476 18.6769 6.04703 18.7111 6.02324L18.9753 5.83959L19.2396 6.02324C19.2738 6.04703 19.3194 6.01476 19.3068 5.97579L19.2088 5.67468L19.47 5.48707C19.5039 5.4628 19.4864 5.41057 19.4444 5.41029L19.1196 5.4079L19.0169 5.1083C19.0035 5.06953 18.9471 5.06953 18.9338 5.1083Z" fill="#F5F5F5"/>
<path d="M16.6458 0.9551L16.5431 1.2547L16.2183 1.25709C16.1763 1.25737 16.1588 1.3096 16.1926 1.33387L16.4539 1.52148L16.3558 1.82259C16.3432 1.86156 16.3888 1.89383 16.4231 1.87004L16.6873 1.68639L16.9515 1.87004C16.9858 1.89383 17.0313 1.86156 17.0187 1.82259L16.9207 1.52148L17.1819 1.33387C17.2158 1.3096 17.1983 1.25737 17.1563 1.25709L16.8315 1.2547L16.7288 0.9551C16.7156 0.916334 16.6591 0.916334 16.6458 0.9551Z" fill="#F5F5F5"/>
<path d="M18.9338 0.9551L18.831 1.2547L18.5063 1.25709C18.4642 1.25737 18.4468 1.3096 18.4806 1.33387L18.7419 1.52148L18.6439 1.82259C18.6312 1.86156 18.6769 1.89383 18.7111 1.87004L18.9753 1.68639L19.2396 1.87004C19.2738 1.89383 19.3194 1.86156 19.3068 1.82259L19.2088 1.52148L19.47 1.33387C19.5039 1.3096 19.4864 1.25737 19.4444 1.25709L19.1196 1.2547L19.0169 0.9551C19.0035 0.916334 18.9471 0.916334 18.9338 0.9551Z" fill="#F5F5F5"/>
</svg>
