<?xml version="1.0" encoding="utf-8"?>
<!-- Generator: Adobe Illustrator 26.1.0, SVG Export Plug-In . SVG Version: 6.00 Build 0)  -->
<svg version="1.1" id="Layer_1" xmlns="http://www.w3.org/2000/svg" xmlns:xlink="http://www.w3.org/1999/xlink" x="0px" y="0px"
	 viewBox="0 0 407.4 137.9" style="enable-background:new 0 0 407.4 137.9;" xml:space="preserve">
<style type="text/css">
	.st0{fill:#FFFFFF;}
	.st1{fill:url(#SVGID_1_);}
	.st2{fill:url(#SVGID_00000062880589290772123300000001082049036735835815_);}
</style>
<g>
	<g>
		<path class="st0" d="M52,44c-0.5-0.1-1-0.3-1.5-0.4c-13.8-3.6-17.2-5.5-17.2-11c0-4.5,3.8-7.8,11.2-7.8c6.1,0,12.4,2.2,18.8,6.1
			l12.7-12.7C67.3,11.6,56.9,8,44.7,8C27,8,14.3,18.4,14.3,34.1c0,14.8,8.1,20.5,21.1,24.6c2.4,0.8,4.9,1.5,7.7,2.2
			c14.5,3.7,17.5,6.2,17.5,11c0,5.3-4.7,8.4-12.5,8.4c-9.4,0-17.2-3.7-24.7-9.6L10.8,83.3c10.4,9.3,23.7,13.9,36.8,13.9
			c18.7,0,31.9-9.7,31.9-26.9C79.5,55,69.6,48.6,52,44z"/>
		<path class="st0" d="M152.6,62.9c0-19.1,15.4-34.6,36.1-34.6c20.6,0,35.8,15.2,35.8,34.6c0,19.1-15.4,34.6-36.1,34.6
			C167.8,97.5,152.6,82.2,152.6,62.9z M205.9,62.9c0-9.8-7.1-18.3-17.5-18.3c-10.8,0-17.2,8.3-17.2,18.3c0,9.8,7.1,18.3,17.5,18.3
			C199.5,81.2,205.9,72.9,205.9,62.9z"/>
		<path class="st0" d="M231.3,29.5h18.9v13.4c3.8-9.2,10-13.9,21.2-13.4v16.1h-1c-12.5,0-20.2,9.9-20.2,25.8V96h-18.9L231.3,29.5
			L231.3,29.5z"/>
		<path class="st0" d="M286.1,77.2V45.7h-7.9V29.5h7.9v-17H305v17h15.6v16.1H305v28.4c0,4.3,1.9,6.4,6.1,6.4c3.5,0,6.6-0.9,9.3-2.4
			v15.1c-4,2.4-8.6,3.8-14.9,3.8C293.9,97.1,286.1,92.5,286.1,77.2z"/>
		<path class="st0" d="M332.5,111.6l6.3-13.6c2.5,1.5,5.6,2.6,8.1,2.6c3.2,0,5-1,6.6-4.3l-26-66.7h20l15.1,45.3L377,29.5h19.6
			l-25.5,68.1c-5.1,13.5-10.5,18.6-21.8,18.6C342.4,116.2,337.3,114.5,332.5,111.6z"/>
	</g>
	<g>
		
			<linearGradient id="SVGID_1_" gradientUnits="userSpaceOnUse" x1="96.8862" y1="134.466" x2="120.0627" y2="3.0061" gradientTransform="matrix(1 0 0 -1 0 140)">
			<stop  offset="0" style="stop-color:#00CCFF"/>
			<stop  offset="1" style="stop-color:#003CBF"/>
		</linearGradient>
		<polygon class="st1" points="77.7,130 98.4,39.6 86.2,8 145.8,49.5 		"/>
		
			<linearGradient id="SVGID_00000146487734656635816320000004248266258420950718_" gradientUnits="userSpaceOnUse" x1="74.7775" y1="133.8549" x2="102.7178" y2="28.1348" gradientTransform="matrix(1 0 0 -1 0 140)">
			<stop  offset="0" style="stop-color:#00CCFF"/>
			<stop  offset="1" style="stop-color:#003CBF"/>
		</linearGradient>
		<polygon style="fill:url(#SVGID_00000146487734656635816320000004248266258420950718_);" points="86.2,8 115.5,47.3 77.7,130 
			98.4,39.6 		"/>
	</g>
</g>
</svg>
